<?xml version="1.0" standalone="no"?><!DOCTYPE svg PUBLIC "-//W3C//DTD SVG 1.1//EN" "http://www.w3.org/Graphics/SVG/1.1/DTD/svg11.dtd"><svg t="1591943633257" class="icon" viewBox="0 0 1024 1024" version="1.1" xmlns="http://www.w3.org/2000/svg" p-id="4453" xmlns:xlink="http://www.w3.org/1999/xlink" width="64" height="64"><defs><style type="text/css"></style></defs><path d="M645.4 695.3V912H161.9c-13.9 0-25.8-4.8-35.4-14.5-9.7-9.7-14.5-21.6-14.5-35.4V161.9c0-13.9 4.8-25.8 14.5-35.4 9.7-9.7 21.6-14.5 35.4-14.5H862c13.9 0 25.8 4.8 35.4 14.5 9.7 9.7 14.5 21.6 14.5 35.4v483.4H695.4c-13.9 0-25.8 4.8-35.4 14.5-9.7 9.8-14.6 21.6-14.6 35.5z m66.7 16.6h198.5c-5.2 28.4-16.6 51.3-33.9 68.8l-95.8 95.8c-17.4 17.3-40.3 28.7-68.8 33.9V711.9z" p-id="4454" fill="#ffffff"></path></svg>